<svg width="141" height="52" viewBox="0 0 141 52" fill="none" xmlns="http://www.w3.org/2000/svg">
<g clip-path="url(#clip0_101_69)">
<path d="M72.2884 17.2236L78.9498 16.793C79.1018 17.8822 79.3804 18.6927 79.8363 19.2753C80.5709 20.1871 81.584 20.643 82.9265 20.643C83.9143 20.643 84.6995 20.4151 85.2314 19.9338C85.7379 19.5539 86.0419 18.946 86.0419 18.3128C86.0419 17.7049 85.7633 17.1223 85.282 16.7424C84.7755 16.2865 83.585 15.8305 81.7107 15.4253C78.6459 14.7414 76.4423 13.8296 75.1505 12.6644C73.8587 11.5753 73.1242 9.9796 73.1749 8.28257C73.1749 7.11744 73.5295 5.95232 74.188 4.98982C74.9479 3.90069 75.9864 3.03951 77.2275 2.55826C78.5699 1.9757 80.4442 1.67175 82.7998 1.67175C85.6873 1.67175 87.8909 2.20366 89.4106 3.2928C90.9304 4.3566 91.8422 6.07896 92.1208 8.43454L85.5353 8.81447C85.358 7.80132 85.0034 7.06678 84.4208 6.58554C83.8383 6.10429 83.0784 5.87633 82.0906 5.87633C81.2801 5.87633 80.6722 6.05363 80.2669 6.38291C79.887 6.68685 79.6337 7.14277 79.659 7.64935C79.659 8.02928 79.8617 8.38388 80.1656 8.61184C80.4949 8.91579 81.2801 9.1944 82.5212 9.44769C85.586 10.1062 87.7642 10.7648 89.1067 11.4487C90.4491 12.1325 91.4116 12.9684 91.9942 13.9562C92.6021 14.9694 92.906 16.1345 92.8807 17.3249C92.8807 18.7434 92.4754 20.1618 91.6649 21.3522C90.829 22.5933 89.6639 23.5558 88.2962 24.1384C86.8524 24.7716 85.0287 25.1009 82.8505 25.1009C79.0005 25.1009 76.341 24.3663 74.8466 22.872C73.3522 21.3776 72.4657 19.5032 72.2884 17.2236ZM1.59571 24.721V2.07701H13.2723C15.4252 2.07701 17.0969 2.25431 18.2367 2.63425C19.3512 2.98885 20.339 3.72338 20.9976 4.71121C21.7321 5.80035 22.0867 7.06678 22.0614 8.38388C22.1374 10.6128 20.9976 12.7404 19.0472 13.8549C18.2874 14.2855 17.4515 14.5894 16.5904 14.7414C17.2236 14.9187 17.8568 15.2227 18.414 15.5773C18.8446 15.9319 19.1992 16.3371 19.5285 16.7677C19.9084 17.1983 20.2377 17.6795 20.5163 18.1861L23.9104 24.7463H15.9571L12.2085 17.7809C11.7272 16.8944 11.322 16.3118 10.942 16.0332C10.4355 15.6786 9.82757 15.5013 9.21968 15.5013H8.61179V24.6956H1.59571V24.721ZM8.61179 11.246H11.5753C12.2085 11.1954 12.8164 11.0941 13.4243 10.9421C13.8802 10.8661 14.2854 10.6128 14.5641 10.2329C15.2479 9.32105 15.1466 8.02928 14.3108 7.24409C13.8548 6.86415 12.9683 6.66152 11.7019 6.66152H8.61179V11.246ZM0 44.1228L6.66147 43.6922C6.81344 44.7813 7.09206 45.5919 7.54798 46.1744C8.25718 47.0863 9.29566 47.5675 10.6381 47.5675C11.6259 47.5675 12.4111 47.3396 12.943 46.8583C13.4496 46.453 13.7535 45.8705 13.7535 45.2373C13.7535 44.6294 13.4749 44.0468 12.9937 43.6669C12.4871 43.211 11.2966 42.755 9.39698 42.3498C6.3322 41.6659 4.12859 40.7541 2.83682 39.5889C1.54506 38.4998 0.810521 36.9041 0.861179 35.2071C0.861179 34.0419 1.21578 32.8768 1.87433 31.9143C2.63419 30.8252 3.67267 29.964 4.91378 29.4828C6.25621 28.9002 8.13054 28.5963 10.4861 28.5963C13.3736 28.5963 15.5772 29.1282 17.0969 30.2173C18.6167 31.3064 19.5032 33.0035 19.7818 35.359L13.1963 35.739C13.019 34.7258 12.6644 33.9913 12.0818 33.51C11.5246 33.0288 10.7394 32.8008 9.75158 32.8262C8.94106 32.8262 8.33317 33.0035 7.92791 33.3581C7.52265 33.662 7.29469 34.1179 7.32002 34.6245C7.32002 35.0044 7.52265 35.359 7.8266 35.587C8.15587 35.8909 8.94106 36.1696 10.1822 36.4228C13.247 37.0814 15.4252 37.7399 16.7677 38.4238C18.1101 39.1077 19.0726 39.9436 19.6551 40.9314C20.263 41.9445 20.567 43.1096 20.567 44.2748C20.567 45.6932 20.1364 47.0863 19.3512 48.2767C18.5153 49.5178 17.3502 50.4803 15.9825 51.0629C14.5387 51.6961 12.7151 52.0254 10.5368 52.0254C6.6868 52.0254 4.02728 51.2908 2.53288 49.7965C1.03848 48.2767 0.20263 46.4024 0 44.1228H0Z" fill="black"/>
<path d="M33.6873 42.3497L39.8169 44.1987C39.4876 45.7438 38.8037 47.2128 37.8666 48.5046C37.0054 49.6444 35.8656 50.5309 34.5738 51.1135C33.2567 51.696 31.585 52 29.5587 52C27.1018 52 25.0755 51.6454 23.5305 50.9362C21.9601 50.227 20.6176 48.9605 19.4779 47.1622C18.3381 45.3638 17.7808 43.0589 17.7808 40.2474C17.7808 36.4988 18.7686 33.6113 20.7696 31.6103C22.7706 29.6093 25.5821 28.5962 29.2294 28.5962C32.0916 28.5962 34.3205 29.1788 35.9669 30.3185C37.5879 31.4837 38.8037 33.2567 39.6142 35.6376L33.434 37.0053C33.282 36.4734 33.0541 35.9415 32.7501 35.4856C32.3702 34.9537 31.889 34.5485 31.3064 34.2445C30.7238 33.9406 30.0653 33.8139 29.4067 33.8139C27.811 33.8139 26.5952 34.4471 25.7594 35.7389C25.1262 36.6761 24.7969 38.1705 24.7969 40.1968C24.7969 42.7043 25.1768 44.4267 25.9367 45.3638C26.6966 46.301 27.7604 46.7569 29.1534 46.7569C30.4959 46.7569 31.509 46.377 32.1929 45.6425C32.8768 44.8573 33.3834 43.7681 33.6873 42.3497ZM47.9981 28.9761H54.9888V36.904H62.6381V28.9761H69.6795V51.6201H62.6381V42.451H54.9888V51.6201H47.9981V28.9761Z" fill="black"/>
<path d="M68.717 40.2982C68.717 36.6001 69.7555 33.7127 71.8071 31.661C73.8587 29.6094 76.7462 28.5709 80.4189 28.5709C84.1929 28.5709 87.0804 29.5841 89.132 31.6104C91.1836 33.6367 92.1968 36.4735 92.1968 40.1208C92.1968 42.7804 91.7409 44.9333 90.8543 46.6304C89.9932 48.302 88.6507 49.6698 87.0044 50.5816C85.3073 51.5188 83.2051 52.0001 80.6975 52.0001C78.1393 52.0001 76.037 51.5948 74.3653 50.7843C72.6429 49.9231 71.2245 48.5807 70.2874 46.9343C69.2489 45.1613 68.717 42.9577 68.717 40.2982ZM75.7077 40.3235C75.7077 42.6031 76.1383 44.2494 76.9742 45.2626C77.81 46.2504 78.9751 46.757 80.4442 46.757C81.9386 46.757 83.1037 46.2757 83.9396 45.2879C84.7754 44.3001 85.1807 42.5524 85.1807 40.0195C85.1807 37.8919 84.7501 36.3215 83.8889 35.359C83.0278 34.3712 81.8626 33.89 80.3936 33.89C79.1018 33.8393 77.8607 34.3965 76.9995 35.3844C76.1383 36.3722 75.7077 38.0186 75.7077 40.3235ZM99.3648 40.2982C99.3648 36.6001 100.403 33.7127 102.455 31.661C104.507 29.6094 107.394 28.5709 111.067 28.5709C114.841 28.5709 117.754 29.5841 119.78 31.6104C121.806 33.6367 122.845 36.4735 122.845 40.1208C122.845 42.7804 122.389 44.9333 121.502 46.6304C120.641 48.302 119.299 49.6698 117.652 50.5816C115.955 51.5188 113.853 52.0001 111.345 52.0001C108.787 52.0001 106.685 51.5948 105.013 50.7843C103.291 49.9231 101.872 48.5807 100.935 46.9343C99.8967 45.1613 99.3648 42.9577 99.3648 40.2982ZM106.356 40.3235C106.356 42.6031 106.786 44.2494 107.622 45.2626C108.458 46.2504 109.623 46.757 111.092 46.757C112.586 46.757 113.752 46.2757 114.587 45.2879C115.423 44.3001 115.829 42.5524 115.829 40.0195C115.829 37.8919 115.398 36.3215 114.537 35.359C113.676 34.3712 112.51 33.89 111.041 33.89C109.75 33.8393 108.483 34.3965 107.647 35.3844C106.786 36.3722 106.356 38.0186 106.356 40.3235Z" fill="black"/>
<path d="M122.11 28.9761H129.101V46.0477H140.018V51.62H122.085V28.9761H122.11Z" fill="black"/>
<path d="M114.405 27.6694C121.443 22.3655 123.613 13.3746 119.252 7.58768C114.891 1.80073 105.651 1.40909 98.6124 6.71294C91.5742 12.0168 89.4038 21.0077 93.7648 26.7946C98.1257 32.5816 107.367 32.9732 114.405 27.6694Z" fill="white"/>
<path d="M75.8154 14.321L112.186 -13.0869L137.353 20.3098L100.983 47.7178L75.8154 14.321Z" fill="white"/>
<path d="M114.405 27.6694C121.443 22.3655 123.613 13.3746 119.252 7.58768C114.891 1.80073 105.651 1.40909 98.6124 6.71294C91.5742 12.0168 89.4039 21.0077 93.7648 26.7946C98.1257 32.5816 107.367 32.9732 114.405 27.6694Z" fill="white"/>
<path d="M85.9433 16.5511L111.411 -2.6401L127.218 18.3368L101.751 37.5281L85.9433 16.5511Z" fill="white"/>
<path d="M114.405 27.6694C121.443 22.3655 123.613 13.3746 119.252 7.58768C114.891 1.80073 105.651 1.40909 98.6124 6.71294C91.5742 12.0168 89.4039 21.0077 93.7648 26.7946C98.1257 32.5816 107.367 32.9732 114.405 27.6694Z" fill="white" stroke="black" stroke-width="4" stroke-miterlimit="10"/>
<path d="M85.9433 16.5511L111.411 -2.6401L127.218 18.3368L101.751 37.5281L85.9433 16.5511Z" stroke="black" stroke-width="4" stroke-miterlimit="10"/>
<path d="M114.405 27.6694C121.443 22.3655 123.613 13.3746 119.252 7.58768C114.891 1.80073 105.651 1.40909 98.6124 6.71294C91.5742 12.0168 89.4039 21.0077 93.7648 26.7946C98.1257 32.5816 107.367 32.9732 114.405 27.6694Z" stroke="black" stroke-width="4" stroke-miterlimit="10"/>
<path d="M85.9433 16.5511L111.411 -2.6401L127.218 18.3368L101.751 37.5281L85.9433 16.5511Z" fill="white"/>
<path d="M114.405 27.6694C121.443 22.3655 123.613 13.3746 119.252 7.58768C114.891 1.80073 105.651 1.40909 98.6124 6.71294C91.5742 12.0168 89.4039 21.0077 93.7648 26.7946C98.1257 32.5816 107.367 32.9732 114.405 27.6694Z" fill="white" stroke="black" stroke-width="4" stroke-miterlimit="10"/>
<path d="M85.9433 16.5511L111.411 -2.6401L127.218 18.3368L101.751 37.5281L85.9433 16.5511Z" stroke="black" stroke-width="4" stroke-miterlimit="10"/>
<path d="M75.8154 14.321L112.186 -13.0869L137.353 20.3098L100.983 47.7178L75.8154 14.321Z" stroke="black" stroke-width="4" stroke-miterlimit="10"/>
<path d="M114.405 27.6694C121.443 22.3655 123.613 13.3746 119.252 7.58768C114.891 1.80073 105.651 1.40909 98.6124 6.71294C91.5742 12.0168 89.4039 21.0077 93.7648 26.7946C98.1257 32.5816 107.367 32.9732 114.405 27.6694Z" stroke="black" stroke-width="4" stroke-miterlimit="10"/>
<path d="M99.3902 15.5265L101.923 13.7535L105.039 18.1861C105.57 18.8953 105.976 19.6551 106.28 20.491C106.457 21.1242 106.406 21.8081 106.153 22.416C105.824 23.1758 105.292 23.809 104.583 24.265C103.747 24.8475 103.038 25.1768 102.43 25.2781C101.847 25.3794 101.239 25.2781 100.682 25.0248C100.074 24.7209 99.5422 24.2903 99.1369 23.7331L101.315 21.7067C101.492 21.9854 101.72 22.2387 101.974 22.4413C102.151 22.5679 102.354 22.6439 102.582 22.6439C102.759 22.6439 102.936 22.5679 103.063 22.4666C103.316 22.3146 103.493 22.0107 103.468 21.7067C103.392 21.2762 103.215 20.8456 102.936 20.5163L99.3902 15.5265ZM106.989 18.338L109.294 16.5143C109.547 16.8183 109.876 17.0463 110.231 17.1729C110.737 17.3249 111.269 17.2236 111.7 16.8943C112.004 16.6916 112.257 16.413 112.359 16.0584C112.511 15.6025 112.257 15.0959 111.801 14.944C111.725 14.9186 111.649 14.8933 111.573 14.8933C111.269 14.868 110.737 14.9946 109.952 15.3239C108.661 15.8558 107.647 16.0584 106.888 15.9824C106.153 15.9065 105.469 15.5265 105.064 14.8933C104.76 14.4627 104.608 13.9561 104.583 13.4496C104.583 12.867 104.735 12.2844 105.064 11.8032C105.545 11.1193 106.128 10.5368 106.837 10.0808C107.901 9.3463 108.838 8.9917 109.648 8.9917C110.459 8.9917 111.219 9.37163 111.928 10.1568L109.648 11.9552C109.192 11.3726 108.331 11.246 107.749 11.7019L107.673 11.7779C107.419 11.9298 107.242 12.1578 107.141 12.4364C107.065 12.639 107.115 12.867 107.242 13.0443C107.343 13.1709 107.495 13.2723 107.673 13.2723C107.875 13.2976 108.23 13.1963 108.737 12.9683C110.003 12.4364 110.965 12.1325 111.624 12.0312C112.181 11.9298 112.764 11.9805 113.296 12.2085C113.777 12.4111 114.182 12.7657 114.461 13.1963C114.815 13.7029 115.018 14.3107 115.043 14.944C115.069 15.6025 114.891 16.2357 114.537 16.793C114.081 17.4768 113.498 18.0594 112.814 18.5153C111.421 19.4778 110.282 19.8831 109.37 19.7311C108.382 19.5791 107.571 19.0726 106.989 18.338Z" fill="black"/>
</g>
<defs>
<clipPath id="clip0_101_69">
<rect width="140.018" height="52" fill="white"/>
</clipPath>
</defs>
</svg>
